<?xml version="1.0" encoding="UTF-8"?><svg id="Lag_2" xmlns="http://www.w3.org/2000/svg" width="1084" height="306" viewBox="0 0 1084 306"><defs><style>.cls-1{fill:#fff;}</style></defs><rect class="cls-1" x=".5" y=".5" width="12" height="305"/><rect class="cls-1" x="18.5" y=".5" width="6" height="305"/><rect class="cls-1" x="31.5" y=".5" width="24" height="305"/><rect class="cls-1" x="65.5" y=".5" width="6" height="305"/><rect class="cls-1" x="87.5" y=".5" width="24" height="305"/><rect class="cls-1" x="119.5" y=".5" width="12" height="305"/><rect class="cls-1" x="142.5" y=".5" width="6" height="305"/><rect class="cls-1" x="158.5" y=".5" width="6" height="305"/><rect class="cls-1" x="172.5" y=".5" width="6" height="305"/><rect class="cls-1" x="190.5" y=".5" width="23" height="305"/><rect class="cls-1" x="219.5" y=".5" width="11" height="305"/><rect class="cls-1" x="235.5" y=".5" width="6" height="305"/><rect class="cls-1" x="249.5" y=".5" width="22" height="305"/><rect class="cls-1" x="282.5" y=".5" width="6" height="305"/><rect class="cls-1" x="306.5" y=".5" width="22" height="305"/><rect class="cls-1" x="336.5" y=".5" width="11" height="305"/><rect class="cls-1" x="361.5" y=".5" width="5" height="305"/><rect class="cls-1" x="375.5" y=".5" width="6" height="305"/><rect class="cls-1" x="390.5" y=".5" width="6" height="305"/><rect class="cls-1" x="408.5" y=".5" width="22" height="305"/><rect class="cls-1" x="436.5" y=".5" width="11" height="305"/><rect class="cls-1" x="455.5" y=".5" width="4" height="305"/><rect class="cls-1" x="468.5" y=".5" width="22" height="305"/><rect class="cls-1" x="500.5" y=".5" width="6" height="305"/><rect class="cls-1" x="523.5" y=".5" width="23" height="305"/><rect class="cls-1" x="554.5" y=".5" width="10" height="305"/><rect class="cls-1" x="579.5" y=".5" width="5" height="305"/><rect class="cls-1" x="593.5" y=".5" width="5" height="305"/><rect class="cls-1" x="608.5" y=".5" width="6" height="305"/><rect class="cls-1" x="626.5" y=".5" width="22" height="305"/><rect class="cls-1" x="654.5" y=".5" width="11" height="305"/><rect class="cls-1" x="672.5" y=".5" width="4" height="305"/><rect class="cls-1" x="686.5" y=".5" width="23" height="305"/><rect class="cls-1" x="718.5" y=".5" width="6" height="305"/><rect class="cls-1" x="741.5" y=".5" width="22" height="305"/><rect class="cls-1" x="772.5" y=".5" width="10" height="305"/><rect class="cls-1" x="797.5" y=".5" width="4" height="305"/><rect class="cls-1" x="811.5" y=".5" width="5" height="305"/><rect class="cls-1" x="826.5" y=".5" width="6" height="305"/><rect class="cls-1" x="843.5" y=".5" width="23" height="305"/><rect class="cls-1" x="872.5" y=".5" width="10" height="305"/><rect class="cls-1" x="890.5" y=".5" width="4" height="305"/><rect class="cls-1" x="904.5" y=".5" width="22" height="305"/><rect class="cls-1" x="935.5" y=".5" width="6" height="305"/><rect class="cls-1" x="958.5" y=".5" width="23" height="305"/><rect class="cls-1" x="990.5" y=".5" width="10" height="305"/><rect class="cls-1" x="1015.5" y=".5" width="4" height="305"/><rect class="cls-1" x="1030.5" y=".5" width="4" height="305"/><rect class="cls-1" x="1043.5" y=".5" width="6" height="305"/><rect class="cls-1" x="1060.5" y=".5" width="23" height="305"/></svg>