<?xml version="1.0" encoding="UTF-8"?><svg id="Lag_2" xmlns="http://www.w3.org/2000/svg" width="442" height="125" viewBox="0 0 442 125"><defs><style>.cls-1{fill:#fff;}</style></defs><rect class="cls-1" x=".5" y=".5" width="5" height="124"/><rect class="cls-1" x="8.5" y=".5" width="2" height="124"/><rect class="cls-1" x="13.5" y=".5" width="9" height="124"/><rect class="cls-1" x="26.5" y=".5" width="3" height="124"/><rect class="cls-1" x="36.5" y=".5" width="9" height="124"/><rect class="cls-1" x="48.5" y=".5" width="5" height="124"/><rect class="cls-1" x="58.5" y=".5" width="2" height="124"/><rect class="cls-1" x="64.5" y=".5" width="2" height="124"/><rect class="cls-1" x="70.5" y=".5" width="3" height="124"/><rect class="cls-1" x="77.5" y=".5" width="10" height="124"/><rect class="cls-1" x="90.5" y=".5" width="4" height="124"/><rect class="cls-1" x="97.5" y=".5" width="2" height="124"/><rect class="cls-1" x="102.5" y=".5" width="9" height="124"/><rect class="cls-1" x="115.5" y=".5" width="2" height="124"/><rect class="cls-1" x="124.5" y=".5" width="9" height="124"/><rect class="cls-1" x="137.5" y=".5" width="5" height="124"/><rect class="cls-1" x="147.5" y=".5" width="2" height="124"/><rect class="cls-1" x="153.5" y=".5" width="2" height="124"/><rect class="cls-1" x="158.5" y=".5" width="3" height="124"/><rect class="cls-1" x="165.5" y=".5" width="10" height="124"/><rect class="cls-1" x="177.5" y=".5" width="5" height="124"/><rect class="cls-1" x="184.5" y=".5" width="3" height="124"/><rect class="cls-1" x="190.5" y=".5" width="10" height="124"/><rect class="cls-1" x="204.5" y=".5" width="2" height="124"/><rect class="cls-1" x="213.5" y=".5" width="9" height="124"/><rect class="cls-1" x="225.5" y=".5" width="5" height="124"/><rect class="cls-1" x="235.5" y=".5" width="2" height="124"/><rect class="cls-1" x="241.5" y=".5" width="3" height="124"/><rect class="cls-1" x="247.5" y=".5" width="3" height="124"/><rect class="cls-1" x="254.5" y=".5" width="10" height="124"/><rect class="cls-1" x="266.5" y=".5" width="4" height="124"/><rect class="cls-1" x="273.5" y=".5" width="2" height="124"/><rect class="cls-1" x="279.5" y=".5" width="9" height="124"/><rect class="cls-1" x="292.5" y=".5" width="2" height="124"/><rect class="cls-1" x="301.5" y=".5" width="10" height="124"/><rect class="cls-1" x="314.5" y=".5" width="5" height="124"/><rect class="cls-1" x="324.5" y=".5" width="2" height="124"/><rect class="cls-1" x="330.5" y=".5" width="2" height="124"/><rect class="cls-1" x="336.5" y=".5" width="2" height="124"/><rect class="cls-1" x="342.5" y=".5" width="10" height="124"/><rect class="cls-1" x="354.5" y=".5" width="5" height="124"/><rect class="cls-1" x="361.5" y=".5" width="2" height="124"/><rect class="cls-1" x="366.5" y=".5" width="10" height="124"/><rect class="cls-1" x="380.5" y=".5" width="3" height="124"/><rect class="cls-1" x="390.5" y=".5" width="9" height="124"/><rect class="cls-1" x="402.5" y=".5" width="5" height="124"/><rect class="cls-1" x="412.5" y=".5" width="2" height="124"/><rect class="cls-1" x="418.5" y=".5" width="2" height="124"/><rect class="cls-1" x="424.5" y=".5" width="3" height="124"/><rect class="cls-1" x="431.5" y=".5" width="10" height="124"/></svg>