<?xml version="1.0" encoding="UTF-8"?><svg id="Lag_2" xmlns="http://www.w3.org/2000/svg" width="442" height="125" viewBox="0 0 442 125"><rect x=".5" y=".5" width="5" height="124"/><rect x="8.5" y=".5" width="2" height="124"/><rect x="13.5" y=".5" width="9" height="124"/><rect x="26.5" y=".5" width="3" height="124"/><rect x="36.5" y=".5" width="9" height="124"/><rect x="48.5" y=".5" width="5" height="124"/><rect x="58.5" y=".5" width="2" height="124"/><rect x="64.5" y=".5" width="2" height="124"/><rect x="70.5" y=".5" width="3" height="124"/><rect x="77.5" y=".5" width="10" height="124"/><rect x="90.5" y=".5" width="4" height="124"/><rect x="97.5" y=".5" width="2" height="124"/><rect x="102.5" y=".5" width="9" height="124"/><rect x="115.5" y=".5" width="2" height="124"/><rect x="124.5" y=".5" width="9" height="124"/><rect x="137.5" y=".5" width="5" height="124"/><rect x="147.5" y=".5" width="2" height="124"/><rect x="153.5" y=".5" width="2" height="124"/><rect x="158.5" y=".5" width="3" height="124"/><rect x="165.5" y=".5" width="10" height="124"/><rect x="177.5" y=".5" width="5" height="124"/><rect x="184.5" y=".5" width="3" height="124"/><rect x="190.5" y=".5" width="10" height="124"/><rect x="204.5" y=".5" width="2" height="124"/><rect x="213.5" y=".5" width="9" height="124"/><rect x="225.5" y=".5" width="5" height="124"/><rect x="235.5" y=".5" width="2" height="124"/><rect x="241.5" y=".5" width="3" height="124"/><rect x="247.5" y=".5" width="3" height="124"/><rect x="254.5" y=".5" width="10" height="124"/><rect x="266.5" y=".5" width="4" height="124"/><rect x="273.5" y=".5" width="2" height="124"/><rect x="279.5" y=".5" width="9" height="124"/><rect x="292.5" y=".5" width="2" height="124"/><rect x="301.5" y=".5" width="10" height="124"/><rect x="314.5" y=".5" width="5" height="124"/><rect x="324.5" y=".5" width="2" height="124"/><rect x="330.5" y=".5" width="2" height="124"/><rect x="336.5" y=".5" width="2" height="124"/><rect x="342.5" y=".5" width="10" height="124"/><rect x="354.5" y=".5" width="5" height="124"/><rect x="361.5" y=".5" width="2" height="124"/><rect x="366.5" y=".5" width="10" height="124"/><rect x="380.5" y=".5" width="3" height="124"/><rect x="390.5" y=".5" width="9" height="124"/><rect x="402.5" y=".5" width="5" height="124"/><rect x="412.5" y=".5" width="2" height="124"/><rect x="418.5" y=".5" width="2" height="124"/><rect x="424.5" y=".5" width="3" height="124"/><rect x="431.5" y=".5" width="10" height="124"/></svg>