<?xml version="1.0" encoding="UTF-8"?><svg id="Lag_2" xmlns="http://www.w3.org/2000/svg" width="743" height="981" viewBox="0 0 743 981"><defs><style>.cls-1,.cls-2,.cls-3{stroke:#fff;stroke-miterlimit:10;stroke-width:5px;}.cls-1,.cls-3{fill:none;}.cls-3{stroke-linecap:round;}</style></defs><path class="cls-1" d="M249.61,133.18s-61,23-53,96c0,0,3.55,9.68-.72,79.34,0,0,.72,20.66,17.72,53.66,0,0-27,86,44,125,0,0,35,38,43,55,0,0,25,75,64,73,0,0,31,6,76-34,0,0,27.77-24.29,51.78-38.13,3.36-1.94,5.71-5.22,6.44-9.03,3.66-18.87,14.1-75.77,10.78-94.84,0,0-111-227-134-283,0,0-33-100-126-23Z"/><path class="cls-1" d="M283.61,460.18c-34.57-8.64-21.61-32.72-14.46-42.64,2.78-3.86,4.87-8.2,5.93-12.84,4.28-18.73,3.54-42.52,3.54-42.52,2.48-31.45-19.71-43.19-26.49-47.94-11.51-8.06-41.51-21.06-56.23-12.1"/><path class="cls-1" d="M408.61,489.18s-60.65.89-76.66,5.2c-1.7.46-3.46.61-5.2.38-6.87-.91-24.67-2.75-37.68.41,0,0,7.19,24.89,26.91,36.88,8.97,5.45,19.77,6.88,29.99,4.48,14.69-3.45,40.96-14.15,62.65-47.36Z"/><path class="cls-3" d="M72.99,978.68c68.38-57.5,98.62-124.5,98.62-124.5,26-87-16-153-55-283s29-312,29-312C177.61,42.18,277.61,35.18,277.61,35.18c0,0-27,33-28,98"/><path class="cls-1" d="M277.61,35.18c142-89,272,31,272,31,0,0,117.92,87,106.46,472,0,0,14.54,166.59,86.04,189.79"/><path class="cls-3" d="M509.61,439.18s85,152,65,278c0,0-31,110,115.5,261.5"/><path class="cls-3" d="M498.61,534.18s-3.78,68.07-58.23,234.55c-2.85,8.72-7.32,16.83-13.14,23.94-18.19,22.23-61.12,83.69-78.41,186.01"/><path class="cls-1" d="M353.07,615.5s54.37,199.32,22.46,267.5"/><path class="cls-3" d="M122.71,590.93S55.61,928.18,2.61,970.18"/><path class="cls-1" d="M354.61,338.18s22-43,70-20c0,0-12.88,25-59.44,20,0,0-8.56,5-10.56,0Z"/><path class="cls-1" d="M379.92,314.99s-6.41,17.46,10.64,22.83"/><path class="cls-1" d="M414.7,314.22s4.73,10.87-4.18,16.92"/><path class="cls-1" d="M273.61,345.18s-32-19-47,10c0,0,7,13,45-1,0,0,9-1,2-9Z"/><path class="cls-1" d="M241.01,341.08s-5.21,17.29,11.2,18.7"/><path class="cls-3" d="M348.1,326.4s18.02-50.22,83.77-13.22"/><path class="cls-3" d="M216.61,343.18s3-27,49-8"/><circle class="cls-2" cx="397.11" cy="318.68" r="4.5"/><circle class="cls-2" cx="258.11" cy="344.68" r="4.5"/><path class="cls-1" d="M408.61,489.18s-53.49,27.22-75.93,21.64c-1.41-.35-2.84-.59-4.29-.57-7.03.07-28.96-.91-39.33-15.07"/><path class="cls-3" d="M384.65,444.03s14.46,20.47,47.21,28.31c0,0,6.75,1.84,2.75,10.84"/><path class="cls-3" d="M283.61,460.18s16.06,1.78,22.89-3.07c1.6-1.14,3.2-2.27,4.94-3.18,2.79-1.46,6.77-3.2,10.79-3.74,9.73-1.32,17.75-.88,22.02-.44,2.99.31,6-.36,8.57-1.92,5.52-3.35,11.95-10.55.25-23.42"/><path class="cls-3" d="M317.11,299.05s83.1-46.14,112.3-26"/></svg>